<svg width="162" height="24" viewBox="0 0 162 24" fill="none" xmlns="http://www.w3.org/2000/svg">
<path d="M9 9H15V15H9V9Z" fill="#F76659"/>
<path fill-rule="evenodd" clip-rule="evenodd" d="M9.29289 3.29289C9.10536 3.48043 9 3.73478 9 4V5H7C6.46957 5 5.96086 5.21071 5.58579 5.58579C5.21071 5.96086 5 6.46957 5 7V9H4C3.73478 9 3.48043 9.10536 3.29289 9.29289C3.10536 9.48043 3 9.73478 3 10C3 10.2652 3.10536 10.5196 3.29289 10.7071C3.48043 10.8946 3.73478 11 4 11H5V13H4C3.73478 13 3.48043 13.1054 3.29289 13.2929C3.10536 13.4804 3 13.7348 3 14C3 14.2652 3.10536 14.5196 3.29289 14.7071C3.48043 14.8946 3.73478 15 4 15H5V17C5 17.5304 5.21071 18.0391 5.58579 18.4142C5.96086 18.7893 6.46957 19 7 19H9V20C9 20.2652 9.10536 20.5196 9.29289 20.7071C9.48043 20.8946 9.73478 21 10 21C10.2652 21 10.5196 20.8946 10.7071 20.7071C10.8946 20.5196 11 20.2652 11 20V19H13V20C13 20.2652 13.1054 20.5196 13.2929 20.7071C13.4804 20.8946 13.7348 21 14 21C14.2652 21 14.5196 20.8946 14.7071 20.7071C14.8946 20.5196 15 20.2652 15 20V19H17C17.5304 19 18.0391 18.7893 18.4142 18.4142C18.7893 18.0391 19 17.5304 19 17V15H20C20.2652 15 20.5196 14.8946 20.7071 14.7071C20.8946 14.5196 21 14.2652 21 14C21 13.7348 20.8946 13.4804 20.7071 13.2929C20.5196 13.1054 20.2652 13 20 13H19V11H20C20.2652 11 20.5196 10.8946 20.7071 10.7071C20.8946 10.5196 21 10.2652 21 10C21 9.73478 20.8946 9.48043 20.7071 9.29289C20.5196 9.10536 20.2652 9 20 9H19V7C19 6.46957 18.7893 5.96086 18.4142 5.58579C18.0391 5.21071 17.5304 5 17 5H15V4C15 3.73478 14.8946 3.48043 14.7071 3.29289C14.5196 3.10536 14.2652 3 14 3C13.7348 3 13.4804 3.10536 13.2929 3.29289C13.1054 3.48043 13 3.73478 13 4V5H11V4C11 3.73478 10.8946 3.48043 10.7071 3.29289C10.5196 3.10536 10.2652 3 10 3C9.73478 3 9.48043 3.10536 9.29289 3.29289ZM17 7H7V17H17V7Z" fill="#F76659"/>
<path d="M36.0462 19H38.3857L41.0128 9.81463H41.1151L43.7358 19H46.0753L49.7699 5.90909H47.2195L44.8608 15.5355H44.7457L42.2209 5.90909H39.9006L37.3821 15.5291H37.2607L34.902 5.90909H32.3516L36.0462 19ZM53.3739 13.2472C53.3739 11.8281 54.256 11.0099 55.496 11.0099C56.7105 11.0099 57.4264 11.7834 57.4264 13.1065V19H59.7404V12.7486C59.7404 10.3771 58.398 9.05398 56.359 9.05398C54.8504 9.05398 53.8916 9.73793 53.4378 10.8501H53.3228V5.90909H51.06V19H53.3739V13.2472ZM64.6723 19.1982C66.2128 19.1982 67.1333 18.4759 67.5551 17.6513H67.6318V19H69.8563V12.429C69.8563 9.83381 67.7405 9.05398 65.8676 9.05398C63.803 9.05398 62.2178 9.97443 61.7064 11.7642L63.8669 12.071C64.097 11.3999 64.749 10.8246 65.8804 10.8246C66.9543 10.8246 67.5423 11.3743 67.5423 12.3395V12.3778C67.5423 13.0426 66.8456 13.0746 65.1134 13.2599C63.2085 13.4645 61.3868 14.0334 61.3868 16.245C61.3868 18.1754 62.7994 19.1982 64.6723 19.1982ZM65.2732 17.4979C64.308 17.4979 63.6176 17.0568 63.6176 16.2067C63.6176 15.3182 64.3911 14.9474 65.4266 14.8004C66.0338 14.7173 67.2483 14.5639 67.5487 14.321V15.478C67.5487 16.571 66.6666 17.4979 65.2732 17.4979ZM76.8337 9.18182H74.8969V6.82955H72.583V9.18182H71.1895V10.9716H72.583V16.4304C72.5702 18.2777 73.9125 19.1854 75.6511 19.1342C76.3095 19.1151 76.7634 18.9872 77.0126 18.9041L76.6227 17.0952C76.4949 17.1271 76.2328 17.1847 75.9452 17.1847C75.3635 17.1847 74.8969 16.9801 74.8969 16.0469V10.9716H76.8337V9.18182ZM85.555 19.1982C87.0955 19.1982 88.0159 18.4759 88.4378 17.6513H88.5145V19H90.7389V12.429C90.7389 9.83381 88.6232 9.05398 86.7503 9.05398C84.6857 9.05398 83.1004 9.97443 82.5891 11.7642L84.7496 12.071C84.9797 11.3999 85.6317 10.8246 86.7631 10.8246C87.8369 10.8246 88.425 11.3743 88.425 12.3395V12.3778C88.425 13.0426 87.7283 13.0746 85.996 13.2599C84.0912 13.4645 82.2695 14.0334 82.2695 16.245C82.2695 18.1754 83.6821 19.1982 85.555 19.1982ZM86.1558 17.4979C85.1906 17.4979 84.5003 17.0568 84.5003 16.2067C84.5003 15.3182 85.2737 14.9474 86.3092 14.8004C86.9165 14.7173 88.131 14.5639 88.4314 14.321V15.478C88.4314 16.571 87.5493 17.4979 86.1558 17.4979ZM97.1288 5.90909V19H99.4043V9.98722H99.5258L103.144 18.9616H104.844L108.462 10.0064H108.583V19H110.859V5.90909H107.957L104.071 15.3949H103.917L100.031 5.90909H97.1288ZM115.912 19.1982C117.453 19.1982 118.373 18.4759 118.795 17.6513H118.872V19H121.096V12.429C121.096 9.83381 118.98 9.05398 117.108 9.05398C115.043 9.05398 113.458 9.97443 112.946 11.7642L115.107 12.071C115.337 11.3999 115.989 10.8246 117.12 10.8246C118.194 10.8246 118.782 11.3743 118.782 12.3395V12.3778C118.782 13.0426 118.086 13.0746 116.353 13.2599C114.448 13.4645 112.627 14.0334 112.627 16.245C112.627 18.1754 114.039 19.1982 115.912 19.1982ZM116.513 17.4979C115.548 17.4979 114.858 17.0568 114.858 16.2067C114.858 15.3182 115.631 14.9474 116.667 14.8004C117.274 14.7173 118.488 14.5639 118.789 14.321V15.478C118.789 16.571 117.907 17.4979 116.513 17.4979ZM123.171 19H125.485V13.228C125.485 11.9815 126.424 11.0994 127.696 11.0994C128.086 11.0994 128.572 11.1697 128.77 11.2337V9.10511C128.559 9.06676 128.195 9.04119 127.939 9.04119C126.814 9.04119 125.875 9.6804 125.517 10.8182H125.415V9.18182H123.171V19ZM130.056 19H132.37V15.7017L133.213 14.8004L136.218 19H138.985L134.958 13.4197L138.762 9.18182H136.058L132.529 13.1257H132.37V5.90909H130.056V19ZM143.994 19.1918C146.282 19.1918 147.855 18.0732 148.264 16.3665L146.103 16.1236C145.79 16.9545 145.023 17.3892 144.026 17.3892C142.53 17.3892 141.539 16.4048 141.52 14.7237H148.36V14.0142C148.36 10.5689 146.289 9.05398 143.873 9.05398C141.06 9.05398 139.226 11.1186 139.226 14.1484C139.226 17.2294 141.034 19.1918 143.994 19.1918ZM141.527 13.1641C141.597 11.9112 142.524 10.8565 143.904 10.8565C145.234 10.8565 146.129 11.8281 146.142 13.1641H141.527ZM154.968 9.18182H153.031V6.82955H150.717V9.18182H149.324V10.9716H150.717V16.4304C150.705 18.2777 152.047 19.1854 153.785 19.1342C154.444 19.1151 154.898 18.9872 155.147 18.9041L154.757 17.0952C154.629 17.1271 154.367 17.1847 154.08 17.1847C153.498 17.1847 153.031 16.9801 153.031 16.0469V10.9716H154.968V9.18182ZM159.483 5.90909H157.009L157.214 15.152H159.272L159.483 5.90909ZM158.243 19.1406C158.997 19.1406 159.643 18.5142 159.649 17.7344C159.643 16.9673 158.997 16.3409 158.243 16.3409C157.463 16.3409 156.83 16.9673 156.837 17.7344C156.83 18.5142 157.463 19.1406 158.243 19.1406Z" fill="#252C32"/>
</svg>
