<svg width="14" height="16" viewBox="0 0 14 16" fill="none" xmlns="http://www.w3.org/2000/svg">
<path d="M8 15C8.00009 15.1704 8.04372 15.3379 8.12674 15.4867C8.20977 15.6355 8.32944 15.7607 8.47439 15.8502C8.61935 15.9398 8.78479 15.9908 8.95501 15.9985C9.12523 16.0061 9.29458 15.9702 9.447 15.894L13.447 13.894C13.6131 13.811 13.7528 13.6834 13.8504 13.5255C13.9481 13.3676 13.9999 13.1857 14 13V7.23602C13.9999 7.06562 13.9563 6.89808 13.8733 6.74929C13.7902 6.60049 13.6706 6.47538 13.5256 6.38582C13.3806 6.29626 13.2152 6.24523 13.045 6.23756C12.8748 6.2299 12.7054 6.26585 12.553 6.34202L8.553 8.34202C8.38692 8.42501 8.24722 8.55259 8.14955 8.71049C8.05188 8.86839 8.0001 9.05035 8 9.23602V15ZM12.211 4.27602C12.3769 4.19288 12.5164 4.06523 12.6138 3.90734C12.7113 3.74946 12.7629 3.56756 12.7629 3.38202C12.7629 3.19647 12.7113 3.01457 12.6138 2.85669C12.5164 2.69881 12.3769 2.57115 12.211 2.48802L7.447 0.106015C7.3082 0.0366567 7.15516 0.000549316 7 0.000549316C6.84484 0.000549316 6.6918 0.0366567 6.553 0.106015L1.789 2.48802C1.62312 2.57115 1.48364 2.69881 1.38617 2.85669C1.28869 3.01457 1.23707 3.19647 1.23707 3.38202C1.23707 3.56756 1.28869 3.74946 1.38617 3.90734C1.48364 4.06523 1.62312 4.19288 1.789 4.27602L6.553 6.65802C6.6918 6.72737 6.84484 6.76348 7 6.76348C7.15516 6.76348 7.3082 6.72737 7.447 6.65802L12.211 4.27602ZM1.447 6.34202C1.29458 6.26585 1.12522 6.2299 0.955006 6.23756C0.784787 6.24523 0.619351 6.29626 0.474394 6.38582C0.329438 6.47538 0.209769 6.60049 0.126744 6.74929C0.0437189 6.89808 9.09694e-05 7.06562 0 7.23602V13C9.91486e-05 13.1857 0.0518831 13.3676 0.149552 13.5255C0.247222 13.6834 0.386919 13.811 0.553 13.894L4.553 15.894C4.70542 15.9702 4.87477 16.0061 5.04499 15.9985C5.21521 15.9908 5.38065 15.9398 5.52561 15.8502C5.67056 15.7607 5.79023 15.6355 5.87326 15.4867C5.95628 15.3379 5.99991 15.1704 6 15V9.23602C5.9999 9.05035 5.94812 8.86839 5.85045 8.71049C5.75278 8.55259 5.61308 8.42501 5.447 8.34202L1.447 6.34202Z" fill="#B0BABF"/>
</svg>
